<svg width="99" height="258" viewBox="0 0 99 258" fill="none" xmlns="http://www.w3.org/2000/svg">
<path opacity="0.2" d="M0.730335 207.596L96.191 167.685L96.191 179.146L13.5393 210.292L0.730335 207.596ZM87.1573 236.584C88.9551 237.213 90.4831 237.303 91.7416 236.854C93 236.404 93.9888 235.685 94.7079 234.697C95.3371 233.618 95.6517 232.539 95.6517 231.461L95.6517 230.247L97 230.247L97 257.348L95.6517 257.348C95.6517 257.348 95.6517 257.124 95.6517 256.674C95.6517 256.315 95.6517 256.135 95.6517 256.135C95.6517 254.067 95.0225 251.955 93.764 249.798C92.4157 247.551 90.2135 245.708 87.1573 244.27L87.1573 236.584ZM0.730335 207.596L10.1685 206.382L96.5955 240.225L96.5955 248.315L14.618 213.798C14.618 213.798 14.0787 213.573 13 213.124C11.8315 212.584 10.4382 212 8.82022 211.371C7.20224 210.652 5.62921 210.067 4.10113 209.618C2.57303 209.079 1.44944 208.809 0.730335 208.809L0.730335 207.596ZM60.191 188.584L64.236 188.584L64.236 230.787L60.191 230.787L60.191 188.584ZM87.1573 182.517L87.1573 171.461C90.2135 170.112 92.4157 168.315 93.764 166.067C95.0225 163.82 95.6517 161.663 95.6517 159.596C95.6517 159.596 95.6517 159.416 95.6517 159.056C95.6517 158.697 95.6517 158.517 95.6517 158.517L97 158.517L97 188.854L95.6517 188.854L95.6517 187.64C95.6517 185.933 94.9326 184.404 93.4944 183.056C91.9663 181.708 89.8539 181.528 87.1573 182.517ZM0.730331 117.675C0.730331 114.618 1.13483 111.652 1.94381 108.776C2.7528 105.899 3.8764 103.248 5.31461 100.821C6.66292 98.3936 8.32584 96.3711 10.3034 94.7532L25.5393 97.1801L25.5393 98.5284C21.2247 98.5284 17.5393 99.3374 14.4831 100.955C11.3371 102.573 8.95505 104.821 7.33708 107.697C5.62921 110.484 4.77528 113.809 4.77528 117.675C4.77528 122.798 6.57303 127.068 10.1685 130.484C13.764 133.809 18.3034 135.472 23.7865 135.472C29.4494 135.472 34.7079 133.63 39.5618 129.944C44.4157 126.259 49.9438 120.955 56.1461 114.034C57.8539 112.057 59.8315 109.899 62.0786 107.562C64.2359 105.135 66.6629 102.394 69.3595 99.3374C72.0562 96.1914 75.0225 92.6858 78.2584 88.8206C80.5955 85.9442 83.0674 83.0228 85.6741 80.0565C88.2809 77.0004 90.5281 73.8992 92.4157 70.7532C94.3034 67.5172 95.382 64.1914 95.6517 60.7756L97 60.7756C97 62.4835 96.955 64.9554 96.8652 68.1914C96.7753 71.3374 96.1461 74.8431 94.9775 78.7082C93.809 82.5734 91.6517 86.4386 88.5056 90.3037C85.7191 93.7195 83.1573 96.8655 80.8202 99.7419C78.3933 102.528 76.191 105.135 74.2135 107.562C72.1461 109.899 70.2135 112.101 68.4157 114.169C66.5281 116.236 64.6854 118.259 62.8876 120.236C58.0337 125.45 53.6742 129.899 49.809 133.585C45.8539 137.18 41.8539 139.967 37.809 141.944C33.6742 143.832 29 144.776 23.7865 144.776C20.4607 144.776 17.4045 144.146 14.618 142.888C11.8315 141.63 9.40449 139.832 7.33708 137.495C5.26966 135.068 3.65168 132.191 2.48314 128.866C1.3146 125.54 0.730332 121.809 0.730331 117.675ZM52.6404 80.461C57.5843 79.4723 62.3034 79.2026 66.7977 79.652C71.2921 80.1015 75.4719 81.2251 79.3371 83.0228C83.1124 84.7307 86.4382 87.1127 89.3146 90.1689C92.191 93.1352 94.4382 96.6858 96.0562 100.821C97.5843 104.955 98.3483 109.585 98.3483 114.708C98.3483 119.922 97.8989 124.731 97 129.135C96.1011 133.45 94.7977 137.27 93.0899 140.596C91.2921 143.922 89.1348 146.753 86.618 149.09C84.0112 151.337 81.0899 153.045 77.8539 154.214C74.5281 155.382 70.8427 155.967 66.7977 155.967C64.191 155.967 61.809 155.697 59.6517 155.158C57.4045 154.528 55.3371 153.675 53.4494 152.596C51.5618 151.517 49.8989 150.259 48.4607 148.821C46.9326 147.292 45.5393 145.63 44.2809 143.832C43.0225 142.034 41.9438 140.101 41.0449 138.034L44.0112 136.146C45.4494 137.944 47.0674 139.472 48.8652 140.731C50.573 141.989 52.4157 143.023 54.3933 143.832C56.2809 144.641 58.3034 145.225 60.4607 145.585C62.5281 145.944 64.6404 146.124 66.7977 146.124C70.8427 146.124 74.573 145.45 77.9888 144.101C81.3146 142.663 84.191 140.641 86.618 138.034C89.0449 135.337 90.9326 132.057 92.2809 128.191C93.6292 124.236 94.3034 119.742 94.3034 114.708C94.3034 110.124 93.4045 106.079 91.6067 102.573C89.7191 98.9779 87.2921 96.0116 84.3258 93.6745C81.2697 91.2475 77.8989 89.4498 74.2135 88.2813C70.5281 87.1127 66.8427 86.6183 63.1573 86.7981C59.382 86.9779 55.8764 87.8768 52.6404 89.4947C50.8427 90.3936 49.3595 91.5622 48.191 93.0004C47.0225 94.3487 46.4382 96.1015 46.4382 98.2588L46.4382 100.281L45.0899 100.281L45.0899 73.4498L46.4382 73.4498L46.4382 75.4723C46.4382 77.4498 47.0225 78.888 48.191 79.7869C49.3595 80.5959 50.8427 80.8206 52.6404 80.461ZM2.61797 52.216L2.61797 37.9238C2.61797 31.6317 3.56179 26.3283 5.44943 22.0137C7.33707 17.6092 9.98875 14.2834 13.4045 12.0362C16.7303 9.78899 20.6404 8.66539 25.1348 8.66539C28.9101 8.66539 32.2359 9.38449 35.1124 10.8227C37.8989 12.2609 40.191 14.1036 41.9888 16.3508C43.6966 18.598 44.9101 20.98 45.6292 23.4969C46.3483 18.7328 47.9213 14.6429 50.3483 11.2272C52.7753 7.72157 55.8315 5.06989 59.5168 3.27213C63.1123 1.38449 67.1573 0.440675 71.6517 0.440675C76.6854 0.440675 81.1348 1.65416 85 4.08112C88.7753 6.50809 91.7416 10.1036 93.8989 14.8676C95.9663 19.5418 97 25.2047 97 31.8564L97 46.8227C97 46.8227 96.5955 46.8227 95.7865 46.8227C94.9775 46.7328 94.1685 46.6879 93.3595 46.6879C92.5506 46.6879 92.1461 46.6879 92.1461 46.6879L92.1461 32.3957C92.1461 27.7216 91.3371 23.7665 89.7191 20.5306C88.0112 17.2946 85.5393 14.8227 82.3034 13.1148C79.0674 11.407 75.2022 10.553 70.7079 10.553C65.6741 10.553 61.5843 11.5418 58.4382 13.5193C55.2921 15.407 52.9101 17.8789 51.2921 20.9351C49.6741 23.9912 48.5955 27.3171 48.0562 30.9126C47.427 34.4182 47.1124 37.789 47.1124 41.0249L45.8989 41.0249C45.8989 38.9575 45.6742 36.6654 45.2247 34.1485C44.7753 31.6317 43.8764 29.2047 42.5281 26.8676C41.1798 24.5306 39.2022 22.598 36.5955 21.0699C33.8989 19.5418 30.3933 18.7778 26.0786 18.7778C22.0337 18.7778 18.573 19.5418 15.6966 21.0699C12.8202 22.5081 10.6629 24.7103 9.22471 27.6766C7.69662 30.553 6.93258 34.1485 6.93258 38.4631L6.93258 50.8676C6.84269 50.8676 6.48314 51.0025 5.85392 51.2721C5.13482 51.4519 4.41572 51.6766 3.69662 51.9463C2.97752 52.1261 2.61797 52.216 2.61797 52.216ZM2.61797 45.6092L97 45.6092L97 54.3733L2.61797 54.3733L2.61797 45.6092ZM87.1573 53.9688L97 53.9688L97 64.7553L95.6517 64.6204C95.6517 64.4407 95.6517 64.171 95.6517 63.8115C95.6517 63.362 95.6517 63.0924 95.6517 63.0025C95.6517 60.6654 94.8427 58.6429 93.2247 56.9351C91.5168 55.2272 89.4944 54.3733 87.1573 54.3733L87.1573 53.9688ZM12.4607 53.9688L12.4607 54.3733C10.1236 54.3733 8.14606 55.2272 6.52809 56.9351C4.82022 58.6429 3.96628 60.6654 3.96628 63.0025C3.96628 63.0924 3.96628 63.362 3.96628 63.8115C3.96628 64.171 3.96628 64.4407 3.96628 64.6204L2.61797 64.7553L2.61797 53.9688L12.4607 53.9688Z" fill="#101D0F"/>
</svg>
