<svg width="60" height="54" viewBox="0 0 60 54" fill="none" xmlns="http://www.w3.org/2000/svg">
<path d="M8.37048 43.5L8.01693 43.8536L8.37048 43.5ZM8.86869 0.457299C8.84511 0.182166 8.60295 -0.0217562 8.32782 0.00182667L3.84426 0.386132C3.56912 0.409715 3.3652 0.651872 3.38879 0.927006C3.41237 1.20214 3.65453 1.40606 3.92966 1.38248L7.91505 1.04087L8.25665 5.02626C8.28023 5.30139 8.52239 5.50532 8.79752 5.48173C9.07266 5.45815 9.27658 5.21599 9.253 4.94086L8.86869 0.457299ZM59.3705 49.5L59.1955 49.0316C52.3456 51.59 42.7907 53.205 33.4013 52.6259C24.0051 52.0464 14.8533 49.2757 8.72403 43.1464L8.37048 43.5L8.01693 43.8536C14.3876 50.2242 23.8192 53.0369 33.3397 53.624C42.8669 54.2116 52.5621 52.5766 59.5454 49.9684L59.3705 49.5ZM8.37048 43.5L8.72403 43.1464C3.10792 37.5304 1.12439 29.3156 1.55726 21.2769C1.99032 13.2346 4.83793 5.47118 8.75297 0.822068L8.37052 0.5L7.98806 0.177932C3.9031 5.02882 1.00067 13.0154 0.558706 21.2231C0.116546 29.4344 2.133 37.9696 8.01693 43.8536L8.37048 43.5Z" fill="#101D0F"/>
</svg>
